<?xml version="1.0" standalone="no"?>
<!DOCTYPE svg PUBLIC "-//W3C//DTD SVG 20010904//EN"
 "http://www.w3.org/TR/2001/REC-SVG-20010904/DTD/svg10.dtd">
<svg version="1.0" xmlns="http://www.w3.org/2000/svg"
 width="1920.000000pt" height="1080.000000pt" viewBox="0 0 1920.000000 1080.000000"
 preserveAspectRatio="xMidYMid meet">

<g transform="translate(0.000000,1080.000000) scale(0.100000,-0.100000)"
fill="#000000" stroke="none">
<path d="M8820 9785 c-58 -17 -206 -62 -330 -99 -345 -103 -525 -158 -528
-161 -1 -1 0 -9 3 -17 5 -13 48 -17 268 -22 257 -7 625 8 1087 45 74 6 146 11
160 11 25 0 24 0 -5 16 -35 18 -519 248 -545 258 -3 1 -52 -13 -110 -31z"/>
<path d="M10105 9711 c-27 -10 -158 -51 -290 -92 l-240 -74 53 -7 c29 -4 63
-14 75 -22 20 -13 198 -58 215 -54 4 1 14 -2 22 -5 34 -13 302 -68 307 -63 4
3 -4 6 -17 6 -13 0 -21 3 -18 6 3 3 23 2 44 -2 29 -5 34 -9 20 -14 -12 -4 23
-15 95 -30 136 -28 161 -31 153 -19 -10 17 23 9 50 -12 15 -12 29 -19 32 -17
7 7 -426 418 -439 417 -7 0 -34 -8 -62 -18z m52 -287 c-3 -3 -12 -4 -19 -1 -8
3 -5 6 6 6 11 1 17 -2 13 -5z m40 -10 c-3 -3 -12 -4 -19 -1 -8 3 -5 6 6 6 11
1 17 -2 13 -5z m130 -30 c-3 -3 -12 -4 -19 -1 -8 3 -5 6 6 6 11 1 17 -2 13 -5z
m50 -10 c-3 -3 -12 -4 -19 -1 -8 3 -5 6 6 6 11 1 17 -2 13 -5z"/>
<path d="M7920 9510 c0 -5 4 -10 9 -10 6 0 13 5 16 10 3 6 -1 10 -9 10 -9 0
-16 -4 -16 -10z"/>
<path d="M7880 9500 l-25 -8 28 -1 c15 -1 27 4 27 9 0 6 -1 10 -2 9 -2 -1 -14
-5 -28 -9z"/>
<path d="M7755 9400 c-4 -6 -13 -9 -21 -6 -9 3 -60 -36 -132 -102 -65 -59
-174 -156 -242 -217 -264 -234 -265 -235 -236 -235 10 0 13 -6 10 -15 -4 -9
-1 -15 7 -15 29 0 382 50 387 54 10 10 242 539 238 543 -2 2 -7 -1 -11 -7z"/>
<path d="M11271 9108 c168 -479 151 -438 179 -438 61 -1 400 35 400 42 0 7
-549 498 -612 548 -26 20 -26 16 33 -152z"/>
<path d="M6993 8698 c-42 -90 -308 -670 -319 -697 -17 -41 -17 -44 -2 -35 8 5
9 2 5 -10 -4 -10 -7 -20 -7 -22 0 -3 -4 -3 -9 0 -5 4 -12 -27 -15 -66 -9 -100
-36 -708 -36 -788 l1 -65 33 85 c19 47 95 242 170 435 l136 349 31 366 c17
201 28 382 26 403 -3 20 -1 35 3 32 4 -3 6 4 3 15 -7 25 -7 25 -20 -2z m-2
-51 c-10 -9 -11 -8 -5 6 3 10 9 15 12 12 3 -3 0 -11 -7 -18z"/>
<path d="M7666 8323 c-136 -202 -250 -372 -252 -378 -3 -6 47 -33 118 -64 68
-29 221 -96 341 -148 120 -53 219 -94 222 -92 2 2 0 24 -5 49 -5 25 -46 258
-90 519 -44 261 -82 476 -83 477 -2 2 -115 -162 -251 -363z"/>
<path d="M11876 8610 c-3 -25 -21 -299 -40 -608 -19 -310 -36 -565 -38 -566
-27 -19 -485 -257 -518 -269 -25 -9 -178 -50 -340 -91 -162 -42 -301 -82 -309
-90 -16 -17 -390 -600 -387 -604 3 -3 989 478 999 487 5 5 119 -39 255 -96
462 -196 480 -203 486 -186 21 54 136 382 136 387 0 3 36 105 81 226 l81 219
-176 548 c-96 302 -186 580 -199 618 l-24 70 -7 -45z m31 -1785 c-40 -63 -76
-114 -80 -115 -15 0 -198 155 -185 158 106 24 316 70 325 71 7 1 -20 -51 -60
-114z"/>
<path d="M8151 7583 c83 -103 375 -418 386 -416 29 3 398 96 405 102 4 3 -79
42 -185 85 -470 194 -600 246 -609 246 -6 0 -4 -8 3 -17z"/>
<path d="M9011 7256 c2 -2 94 -47 203 -99 l200 -97 33 87 c18 48 30 89 27 92
-5 5 -267 19 -388 20 -44 1 -77 -1 -75 -3z"/>
<path d="M7426 7127 c129 -172 524 -687 542 -706 22 -26 22 -25 -4 49 -15 41
-59 167 -99 280 l-71 205 -194 98 c-151 78 -189 94 -174 74z"/>
<path d="M9655 6931 l-330 -206 384 -3 c211 -1 386 -1 387 1 4 3 -103 408
-108 412 -2 1 -151 -90 -333 -204z"/>
<path d="M8557 7118 c6 -7 66 -87 133 -178 67 -91 138 -185 157 -209 18 -25
30 -48 26 -51 -7 -6 -341 -131 -711 -266 -73 -27 -128 -50 -123 -52 6 -2 128
-23 272 -46 l262 -43 80 54 c44 29 82 52 83 50 2 -1 -31 -107 -72 -236 -41
-128 -74 -237 -74 -241 0 -7 111 -22 118 -15 2 2 53 180 112 395 60 216 111
395 114 397 2 3 80 12 173 21 92 10 167 21 166 25 -1 5 -89 57 -195 116 -106
59 -266 149 -356 199 -89 51 -165 92 -168 92 -4 0 -2 -6 3 -12z"/>
<path d="M6602 6958 c3 -7 74 -214 159 -460 150 -434 154 -445 161 -400 11 73
61 833 55 839 -3 3 -59 9 -124 14 -65 4 -149 11 -187 14 -53 4 -67 2 -64 -7z"/>
<path d="M10173 6229 c-34 -74 -124 -271 -201 -439 -309 -672 -381 -831 -387
-849 -5 -15 -1 -18 22 -14 36 7 1583 312 1604 317 13 3 44 -97 180 -585 90
-323 167 -585 170 -581 4 4 88 225 188 492 l181 485 -131 380 c-72 209 -156
454 -186 545 -31 91 -60 168 -65 171 -5 3 -46 11 -91 18 -45 7 -312 50 -593
96 -280 46 -537 87 -570 90 l-60 7 -61 -133z m1300 -317 c-42 -117 -78 -210
-80 -208 -2 2 16 59 41 127 75 212 109 300 113 296 2 -2 -31 -99 -74 -215z
m-109 -300 c-15 -40 -29 -71 -31 -69 -2 3 8 37 23 76 15 39 28 70 30 68 2 -2
-8 -36 -22 -75z m-80 -221 c-21 -56 -39 -100 -41 -98 -2 2 13 50 33 106 20 56
38 100 40 98 2 -2 -12 -50 -32 -106z"/>
<path d="M9270 6256 c0 -9 -36 -121 -81 -249 -44 -128 -92 -265 -106 -305 -14
-40 -27 -71 -29 -69 -2 2 36 118 84 258 49 140 92 272 95 293 5 33 -26 -10
-183 -248 -105 -158 -191 -292 -193 -299 -2 -14 -43 -37 -65 -37 -9 0 -107
-26 -219 -57 -112 -31 -206 -53 -210 -50 -3 4 15 107 41 229 25 123 46 231 46
242 0 16 -6 18 -52 12 -29 -3 -177 -9 -329 -12 -268 -7 -289 -6 -702 32 -235
21 -429 35 -432 32 -3 -3 124 -207 283 -454 160 -248 338 -538 397 -647 59
-108 110 -199 114 -201 3 -2 110 27 236 66 127 38 376 114 555 167 178 54 328
104 332 112 5 8 40 108 79 222 40 114 73 206 75 204 2 -2 -28 -97 -67 -211
-39 -114 -69 -209 -67 -211 3 -3 524 217 532 226 8 8 -115 952 -125 964 -6 5
-9 2 -9 -9z"/>
<path d="M12795 5943 c-44 -13 -196 -60 -339 -103 -142 -44 -260 -81 -261 -82
-2 -4 110 -316 116 -323 3 -2 34 45 69 104 45 78 75 118 104 138 202 143 406
293 399 292 -4 0 -44 -12 -88 -26z"/>
<path d="M12400 5239 c-69 -27 -201 -80 -295 -116 l-170 -67 265 -87 c146 -49
271 -88 278 -88 6 -1 -17 47 -54 106 l-66 106 99 99 c53 54 91 98 83 97 -8 0
-71 -23 -140 -50z"/>
<path d="M8870 5053 c0 -4 202 -255 665 -828 98 -121 238 -294 311 -385 140
-175 139 -174 651 -588 l43 -34 21 48 c11 27 66 157 121 289 55 132 106 245
112 251 8 9 146 7 531 -7 286 -10 554 -18 597 -18 l76 -1 165 153 c91 83 164
153 162 155 -2 2 -175 -6 -384 -18 l-382 -21 -562 175 c-309 97 -578 183 -597
192 -19 9 -214 124 -433 256 -239 144 -415 244 -440 250 -140 31 -657 135
-657 131z"/>
<path d="M8757 4747 c-54 -166 -147 -455 -208 -642 l-111 -340 21 -50 c11 -27
124 -306 252 -620 127 -313 232 -571 233 -572 3 -3 1001 -41 1004 -38 2 2 -29
79 -68 172 -154 362 -1022 2388 -1024 2390 -1 1 -45 -134 -99 -300z"/>
<path d="M7725 4308 l-7 -403 -164 -452 c-90 -249 -164 -457 -164 -462 0 -5
20 -17 45 -26 25 -10 42 -22 38 -28 -4 -6 -1 -7 6 -2 15 9 183 -34 176 -45 -2
-4 8 -5 23 -3 22 4 24 2 12 -7 -12 -10 -11 -11 8 -7 12 3 22 2 22 -2 0 -4 6
-8 13 -9 6 0 52 -13 100 -27 54 -17 93 -23 98 -18 10 10 178 329 386 730 l115
223 -343 462 c-188 255 -345 467 -349 471 -4 5 -11 -173 -15 -395z"/>
<path d="M10294 2898 c-126 -161 -250 -320 -275 -353 l-46 -60 178 20 c97 11
181 23 184 27 6 6 195 658 190 658 0 0 -104 -131 -231 -292z m-274 -388 c0 -5
-5 -10 -11 -10 -5 0 -7 5 -4 10 3 6 8 10 11 10 2 0 4 -4 4 -10z"/>
<path d="M7434 2249 c-94 -22 -168 -125 -168 -234 0 -127 27 -160 243 -304
157 -106 179 -123 196 -162 26 -56 25 -145 -1 -190 -34 -57 -63 -72 -143 -70
-92 2 -166 30 -225 85 l-46 42 0 -73 0 -73 198 0 c108 0 213 4 232 10 154 43
213 277 103 406 -10 12 -93 71 -184 132 -145 97 -169 116 -188 154 -40 83 -19
197 45 247 26 21 37 23 104 19 88 -5 144 -30 208 -91 l42 -41 0 71 c0 61 -3
71 -19 76 -34 9 -355 5 -397 -4z"/>
<path d="M8245 2225 c4 -16 7 -35 8 -40 0 -6 -70 -208 -156 -451 -86 -242
-157 -445 -157 -452 0 -8 25 -12 80 -12 44 0 80 1 80 3 0 1 -7 34 -15 72 -15
70 -20 230 -9 259 5 14 32 16 194 16 l188 0 42 -122 c24 -68 52 -147 62 -175
l19 -53 85 0 c46 0 84 2 84 4 0 8 -340 969 -345 974 -2 3 -41 6 -86 6 l-80 1
6 -30z m115 -327 c49 -141 90 -259 90 -262 0 -3 -83 -6 -185 -6 -102 0 -185 2
-185 4 0 14 182 527 186 523 2 -1 44 -118 94 -259z"/>
<path d="M8962 2252 l-142 -3 2 -487 3 -487 80 0 80 0 3 153 3 152 122 0 c112
0 128 2 175 26 59 29 111 87 144 160 19 41 23 66 23 149 0 87 -3 107 -26 155
-56 119 -134 174 -254 181 -38 2 -134 3 -213 1z m222 -23 c115 -53 154 -393
63 -554 -37 -66 -76 -85 -173 -85 l-84 0 0 325 0 325 85 0 c46 0 95 -5 109
-11z"/>
<path d="M9878 2252 l-108 -3 0 -489 0 -490 115 0 c70 0 115 4 115 10 0 6 -16
10 -35 10 l-35 0 0 230 0 229 108 4 107 3 -107 2 -108 2 0 241 0 241 113 -4
c127 -4 179 -22 248 -88 l39 -37 0 71 0 71 -173 0 c-94 0 -220 -1 -279 -3z"/>
<path d="M10430 2253 c0 -5 7 -17 15 -27 13 -17 15 -91 15 -483 0 -380 2 -465
13 -469 8 -3 43 -4 79 -2 l66 3 -38 63 c-21 35 -51 98 -66 140 -27 76 -28 81
-33 385 -3 169 -4 307 -1 307 3 0 133 -202 290 -448 l285 -447 63 -3 62 -3 -2
493 -3 493 -77 0 -77 0 20 -30 c36 -53 86 -168 102 -235 13 -50 17 -123 17
-310 1 -135 1 -249 0 -255 -1 -11 2 -16 -314 478 l-229 357 -93 0 c-52 0 -94
-3 -94 -7z"/>
<path d="M11428 2251 c-120 -24 -200 -167 -168 -300 20 -84 56 -121 232 -239
90 -60 171 -118 180 -128 63 -71 48 -229 -26 -277 -17 -12 -47 -17 -95 -17
-92 0 -169 29 -227 84 l-44 43 0 -74 0 -73 198 0 c109 0 214 5 236 11 22 6 56
28 80 53 76 76 97 195 52 291 -30 65 -51 82 -234 204 -172 115 -191 139 -192
239 0 66 18 110 59 145 66 55 215 27 311 -60 l51 -46 -3 74 -3 74 -185 1
c-102 1 -201 -1 -222 -5z"/>
<path d="M9532 1763 l3 -488 80 0 80 0 3 488 2 487 -85 0 -85 0 2 -487z"/>
<path d="M10321 1386 c-53 -54 -121 -86 -206 -95 -42 -5 -79 -12 -82 -15 -4
-3 66 -6 155 -6 144 0 161 2 166 18 5 19 8 132 3 132 -2 0 -18 -15 -36 -34z"/>
</g>
</svg>
